<svg xmlns="http://www.w3.org/2000/svg" viewBox="0 0 161.43 125.55"><defs><style>.cls-1{fill:#2cb5b3;opacity:0.16;}.cls-2{fill:#fff;}</style></defs><g id="Слой_2" data-name="Слой 2"><g id="Слой_1-2" data-name="Слой 1"><rect class="cls-1" x="33.65" y="14.8" width="95.95" height="95.95" rx="12" transform="translate(62.51 -38.4) rotate(41.74)"/><path class="cls-2" d="M76.76,83.07a68.79,68.79,0,0,0,11.15-10.6q5.73-6.64,5.73-9c0-.79-.45-1.18-1.34-1.18q-3.22,0-9.3,6.37a55.75,55.75,0,0,0-5.35,6.5q-2.34,3.34-7.49,12A56.09,56.09,0,0,1,59.77,94.5a19,19,0,0,1-8.49,2.11,11.33,11.33,0,0,1-7.8-2.53,8.84,8.84,0,0,1-2.85-7q0-9.42,8-18.13t16.67-8.7a8.33,8.33,0,0,1,5.93,2.18A7.35,7.35,0,0,1,73.51,68q0,6.27-6.12,13.35T55.84,88.46A5.66,5.66,0,0,1,52,87.08a4.55,4.55,0,0,1-1.18-1.58,4.24,4.24,0,0,1-.38-1.87,3.79,3.79,0,0,1,1-2.65,3.18,3.18,0,0,1,2.35-1,1.69,1.69,0,0,1,1.69,1.6,2,2,0,0,0-.24-1.68,2.19,2.19,0,0,0-1.75-.63,3.28,3.28,0,0,0-1,.15,3.61,3.61,0,0,0-1.65,1.15,4.63,4.63,0,0,0-1.1,3.07,5.05,5.05,0,0,0,1.72,3.88,6,6,0,0,0,4.22,1.57q5.88,0,12.19-7.19T74.13,68a7.62,7.62,0,0,0-2.57-6,10.21,10.21,0,0,0-6.92-2.23q-9.39,0-17.81,8T38.4,84.55A11.81,11.81,0,0,0,51.05,97.2q8.51,0,18.29-8.54a61.79,61.79,0,0,1-7.08,9.21,18.86,18.86,0,0,1-6.43,4.19q-12.11-3.15-18.22-3.15-7.87,0-7.88,3Q29.73,105,40,105a58.26,58.26,0,0,0,11.29-1.08q8.55,2.73,12.71,3.58a43.07,43.07,0,0,0,8.67.85c4.09,0,7.21-.73,9.36-2.21q1.74-1.22,1.74-1.74a.35.35,0,0,0-.2-.17,1.48,1.48,0,0,0-.36.17,9,9,0,0,1-6.17,2.48,23,23,0,0,1-5-.58q-2.56-.57-15.64-4.06a26.24,26.24,0,0,0,11.8-6Q72.66,92.07,76.76,83.07Zm8.87-15.33c2.82-3.31,5.05-5,6.67-5,.52,0,.79.24.79.72q0,2-5.13,8A82.07,82.07,0,0,1,77.22,82.09Q81.86,72.18,85.63,67.74ZM40.37,104.42q-10.08,0-10.08-2.56,0-1.9,4.3-1.9,4.14,0,15.66,3.64A54.2,54.2,0,0,1,40.37,104.42Z"/><path class="cls-2" d="M68.43,15.9a9.26,9.26,0,0,0-6.78-2.52A21.14,21.14,0,0,0,50.5,17Q44.11,12.85,35,12.84A36.89,36.89,0,0,0,12.7,20.2q-10,7.35-10.06,16.26a9.54,9.54,0,0,0,2.63,7,9.49,9.49,0,0,0,7,2.62q6.71,0,13.6-6.23t6.9-12.34q0-5-5.42-5-5.67,0-11,4.64T10.93,36.7a5.39,5.39,0,0,0,1,3.35,3.13,3.13,0,0,0,2.55,1.37c.4,0,.6-.1.6-.29s-.18-.18-.53-.25a2.34,2.34,0,0,1-1.77-.82,2.77,2.77,0,0,1-.75-2q0-4.59,5.37-9.79t10.06-5.21c3.12,0,4.69,1.52,4.69,4.56q0,5.74-6.76,11.81T12.34,45.56A8.72,8.72,0,0,1,6.2,43.48a7.23,7.23,0,0,1-2.26-5.6q0-7,8.06-14.83a31.94,31.94,0,0,1,23.11-9.61q9.44,0,14.42,4.19a45.74,45.74,0,0,0-7.34,6.9,80.81,80.81,0,0,0-7.49,9.54q-6.44,9.81-8.22,12.23a32.81,32.81,0,0,1-4.22,4.61A18.13,18.13,0,0,1,9.76,56a11.36,11.36,0,0,1-6.47-1.73A5.58,5.58,0,0,1,1,51.49a6,6,0,0,1-.26-1.56,7.88,7.88,0,0,1,.2-1.88c0-.15.13-.52.26-.94,0-.14.08-.26.11-.34-.11.11-.23.21-.33.33a4.22,4.22,0,0,0-1,2.77A5.71,5.71,0,0,0,2.8,54.7a12,12,0,0,0,7,1.94q5.17,0,11.75-3.21a28.34,28.34,0,0,0,8.59-6.14Q33.28,43.8,37,36q6.07-12.66,13-18a8.1,8.1,0,0,1,2.42,5.7,9.34,9.34,0,0,1-1.9,5.79,10,10,0,0,1-5.18,3.53,16.57,16.57,0,0,0-3.75-.57q-2,0-2,.57c0,.53.8.79,2.39.79a10.84,10.84,0,0,0,1.51-.1l1.83-.22q5,2.46,5,7.68a15.44,15.44,0,0,1-4,10.28q-4,4.68-8.82,4.68A4.83,4.83,0,0,1,34,54.81a4.64,4.64,0,0,1-1.41-3.46q0-3.9,3.39-7.65T43,40a4.21,4.21,0,0,1,3,1.11A3.78,3.78,0,0,1,47.16,44a7.91,7.91,0,0,1-1.63,4.32.85.85,0,0,0-.13.37c0,.17.12.26.35.26s.72-.61,1.23-1.83A8.43,8.43,0,0,0,47.73,44a4.51,4.51,0,0,0-1.32-3.35,4.64,4.64,0,0,0-3.4-1.3c-2.5,0-5,1.31-7.45,4s-3.7,5.29-3.7,8a5.24,5.24,0,0,0,1.75,4.14A6.9,6.9,0,0,0,38.32,57,15.79,15.79,0,0,0,49.1,52.89a12.25,12.25,0,0,0,4.61-9.47q0-7.31-7.84-10.05,9.54-1.32,9.54-8.34,0-4.38-4.4-7.65A20.22,20.22,0,0,1,61.72,14,8.35,8.35,0,0,1,68,16.36a8.72,8.72,0,0,1,2.36,6.37,13.06,13.06,0,0,1-.85,4.76,1,1,0,0,0-.06.28.27.27,0,0,0,.31.31q.41,0,.84-1.95A16.63,16.63,0,0,0,71,22.54,8.89,8.89,0,0,0,68.43,15.9Z"/><path class="cls-2" d="M74.32,45.45a4.1,4.1,0,0,1-.57.82L72.4,48Q65.88,56,61.21,56a4.88,4.88,0,0,1-3.7-1.59,5.58,5.58,0,0,1-1.5-4q0-5.67,7.91-10,4.15-2.26,6.76-2.27a2.91,2.91,0,0,1,1.94.68,2.06,2.06,0,0,1,.8,1.65c0,1.51-1,2.8-3,3.86s-5.26,2-9.88,3q-2.14,3.24-2.14,5.42c0,1.8,1,2.71,2.93,2.71q5,0,12.19-9.72c.26-.33.47-.5.64-.5S74.32,45.34,74.32,45.45Zm-2.66-5.84c0-.67-.37-1-1.1-1-1.11,0-2.58.77-4.39,2.31a32.69,32.69,0,0,0-5.34,6,24.36,24.36,0,0,0,7.68-3.29Q71.66,41.51,71.66,39.61Z"/><path class="cls-2" d="M96.46,45.42q0,.66-4.61,6.11Q88.13,56,86,56a2.94,2.94,0,0,1-2.36-1.08,4.12,4.12,0,0,1-.92-2.73,8.22,8.22,0,0,1,1-3.68,43.3,43.3,0,0,1-4.82,5.95A4.86,4.86,0,0,1,75.66,56a3.45,3.45,0,0,1-2.8-1.43A5.63,5.63,0,0,1,71.72,51q0-6,8.54-10.7a13.43,13.43,0,0,1,6-2.08,1.7,1.7,0,0,1,2,1.89A5.36,5.36,0,0,1,88,41.5l1.61-3.06a7.24,7.24,0,0,0,1.67.22,13.94,13.94,0,0,0,2.2-.22l-5.57,9.23Q85,52.52,85,54.06c0,1,.41,1.48,1.23,1.48s2.19-1,4-2.89a53.48,53.48,0,0,0,5.64-7.11c.13-.21.24-.31.35-.31A.17.17,0,0,1,96.46,45.42Zm-8.68-5.21c0-1-.47-1.55-1.42-1.55q-2.89,0-7.6,5.67t-4.71,9.16c0,1.37.61,2,1.83,2q2.18,0,7.52-7.21Q87.78,42.41,87.78,40.21Z"/><path class="cls-2" d="M116.7,45.42q0,.72-4.57,6.11-3.78,4.48-6,4.48a3,3,0,0,1-2.35-1.12,4,4,0,0,1-1-2.69,7.85,7.85,0,0,1,1.23-3.43l-.63.85a48,48,0,0,1-4.25,5A4.21,4.21,0,0,1,96.38,56a3,3,0,0,1-2.33-1.08,4,4,0,0,1-1-2.67,8.34,8.34,0,0,1,1.42-4.18l5.73-9.64a8.57,8.57,0,0,0,1.67.22,17.3,17.3,0,0,0,2.14-.22L96.57,50.78a6.71,6.71,0,0,0-1.14,3.34c0,1,.4,1.42,1.2,1.42q3.18,0,10.2-11.87l3.09-5.23a7.42,7.42,0,0,0,1.63.22,15.55,15.55,0,0,0,2.24-.22l-5,8.22q-3.59,5.85-3.59,7.53,0,1.35,1.29,1.35,2.53,0,8.2-7.95l1-1.35.57-.7c.1-.21.21-.31.31-.31A.17.17,0,0,1,116.7,45.42Z"/><path class="cls-2" d="M128.3,38.19l-.25.47h-4.12l-7,12a7.4,7.4,0,0,0-1.3,3.46c0,1,.5,1.42,1.49,1.42q2.87,0,9.68-10c.14-.21.27-.31.37-.31a.17.17,0,0,1,.19.19,3,3,0,0,1-.31.5l-1.36,1.86Q119.75,56,116.75,56a3.23,3.23,0,0,1-2.47-1.07,3.76,3.76,0,0,1-1-2.68A10,10,0,0,1,115,47.54l5.29-8.88H117l.32-.47h3.14l3.69-6.11a6.88,6.88,0,0,0,1.79.25,7,7,0,0,0,1.83-.25l-3.62,6.11Z"/><path class="cls-2" d="M147.15,45.45q0,.46-3.47,4.31a38.71,38.71,0,0,1-10,7.6l-1.55,2.78q-4.56,8.17-9.54,12.18t-8.91,4.12a3,3,0,0,1-2.15-.81,2.67,2.67,0,0,1-.87-2q0-6.33,14.58-13.1c.79-.4,2-.95,3.59-1.67l.47-.28,5.54-9.85a49.82,49.82,0,0,1-4.75,5.9,4.42,4.42,0,0,1-3,1.4,2.92,2.92,0,0,1-2.25-1.1,3.82,3.82,0,0,1-1-2.58q0-1.8,2.24-5.61L131,38.54a10.29,10.29,0,0,0,1.67.12,15.52,15.52,0,0,0,2.26-.22l-6.2,10.08Q126,52.79,126,54.12c0,1,.43,1.42,1.29,1.42q3.39,0,10.45-12.06l2.9-4.94a11,11,0,0,0,1.76.12,12.28,12.28,0,0,0,2.11-.22q-3.9,6.21-10.58,18.2a32.32,32.32,0,0,0,6.49-4.29,47.16,47.16,0,0,0,5.93-6.52c.3-.38.48-.57.57-.57A.17.17,0,0,1,147.15,45.45ZM129,59.1c-.33.19-1.52.78-3.55,1.79Q111.09,68,111.08,73.67c0,1.58.88,2.37,2.65,2.37q3.33,0,6.64-3.63t8.18-12.68Z"/><path class="cls-2" d="M100.47,94.17c0,.49-1.52,2.52-4.57,6.12-2.52,3-4.52,4.48-6,4.48a3,3,0,0,1-2.35-1.12,4,4,0,0,1-1-2.69,7.85,7.85,0,0,1,1.23-3.43l-.63.85a49.13,49.13,0,0,1-4.25,5,4.25,4.25,0,0,1-2.8,1.42,3,3,0,0,1-2.33-1.09,3.91,3.91,0,0,1-.95-2.66,8.47,8.47,0,0,1,1.42-4.19L84,87.2a9.44,9.44,0,0,0,1.67.22,19.6,19.6,0,0,0,2.14-.22L80.34,99.54a6.68,6.68,0,0,0-1.14,3.34q0,1.41,1.2,1.41,3.18,0,10.2-11.87l3.09-5.22a8.08,8.08,0,0,0,1.63.22,17.15,17.15,0,0,0,2.24-.22l-5,8.22q-3.58,5.85-3.59,7.52,0,1.35,1.29,1.35,2.53,0,8.2-7.94l1-1.36.57-.69c.1-.21.21-.32.31-.32A.17.17,0,0,1,100.47,94.17Z"/><path class="cls-2" d="M125.69,94.17q0,.66-4.57,6.12c-2.5,3-4.47,4.48-5.89,4.48a3,3,0,0,1-2.38-1.11,4,4,0,0,1-1-2.7,6,6,0,0,1,.59-2.63,47.56,47.56,0,0,1,3-4.8q2.55-3.78,2.55-4.82c0-.86-.46-1.29-1.36-1.29q-4.59,0-14.17,17.06c-1-.08-1.64-.12-1.85-.12a17,17,0,0,0-2.08.12l4.91-7.77q4.18-6.67,4.19-8.35c0-.63-.27-.94-.79-.94q-1.6,0-6.34,6.78c-.19.28-.34.42-.45.44s-.16-.06-.18-.18a.52.52,0,0,1,.12-.26l.6-.79q4.83-6.47,6.5-6.46a2.26,2.26,0,0,1,1.83,1,3.72,3.72,0,0,1,.75,2.33c0,1.35-.78,3.21-2.36,5.61a54,54,0,0,1,5.72-7A5.66,5.66,0,0,1,116.8,87a2.91,2.91,0,0,1,2.33,1.13,4.23,4.23,0,0,1,.94,2.8c0,1.41-1,3.56-2.9,6.46s-3,4.85-3,5.66a1.14,1.14,0,0,0,1.3,1.29q2.8,0,9.68-10c.1-.21.21-.32.31-.32A.17.17,0,0,1,125.69,94.17Z"/><path class="cls-2" d="M141.31,94.17c0,.28-1.48,2-4.45,5.3q-4.85,5.3-8.25,5.3a5,5,0,0,1-3.78-1.69,5.67,5.67,0,0,1-1.58-4,9.14,9.14,0,0,1,2.14-5.48,18.47,18.47,0,0,1,5.76-4.88,10.72,10.72,0,0,1,5-1.76c1.55,0,2.33.92,2.33,2.77A7.7,7.7,0,0,1,137,94.06c-1,1.45-1.94,2.17-2.91,2.17a1.25,1.25,0,0,1-1.42-1.41c0-1.12,1-2.14,2.9-3.09,1.49-.73,2.24-1.7,2.24-2.89,0-1-.52-1.42-1.55-1.42q-2.61,0-6.42,5.19C127.29,96.08,126,99,126,101.34c0,2,.93,3,2.78,3q4.33,0,11.78-9.8.42-.51.6-.51A.17.17,0,0,1,141.31,94.17Z"/><path class="cls-2" d="M161.43,94.11a.88.88,0,0,1-.32.57l-1.35,1.86q-5.92,8.22-8.83,8.23a3.16,3.16,0,0,1-2.47-1.09,4,4,0,0,1-1-2.72q0-2.2,2.4-5.76c2.5-3.68,3.74-5.86,3.74-6.55s-.43-1.23-1.29-1.23q-1.89,0-5.16,3.71t-8.66,13.48a8.06,8.06,0,0,0-1.6-.19,11.62,11.62,0,0,0-1.86.19l4.63-8.38q.94-1.78,2.89-5.29,1-1.69,6.39-10.83L153.76,72a8.15,8.15,0,0,0,1.61.19,8.52,8.52,0,0,0,2.39-.32q-3.27,5.27-9.76,15.75l-4.88,8.12Q149,86.94,152.47,87a2.89,2.89,0,0,1,2.31,1.16,4.31,4.31,0,0,1,1,2.83q0,2.18-2.77,6.27-3.08,4.56-3.08,5.73a1.19,1.19,0,0,0,1.35,1.35q2.46,0,8.14-7.94l1-1.36.56-.69c.11-.21.23-.32.38-.32A.12.12,0,0,1,161.43,94.11Z"/></g></g></svg>