<svg xmlns="http://www.w3.org/2000/svg" viewBox="0 0 161.43 95.52"><defs><style>.cls-1{fill:#fff;}</style></defs><g id="Слой_2" data-name="Слой 2"><g id="Слой_1-2" data-name="Слой 1"><path class="cls-1" d="M76.76,70.23A69.33,69.33,0,0,0,87.91,59.62q5.73-6.63,5.73-9c0-.78-.45-1.18-1.34-1.18q-3.22,0-9.3,6.37a55,55,0,0,0-5.35,6.51q-2.34,3.34-7.49,12a56.09,56.09,0,0,1-10.39,7.32,18.94,18.94,0,0,1-8.49,2.1q-5,0-7.8-2.53a8.81,8.81,0,0,1-2.85-7q0-9.42,8-18.13t16.67-8.7a8.28,8.28,0,0,1,5.93,2.18,7.33,7.33,0,0,1,2.31,5.57q0,6.27-6.12,13.35T55.84,75.62A5.66,5.66,0,0,1,52,74.24a4.58,4.58,0,0,1-1.18-1.59,4.19,4.19,0,0,1-.38-1.86,3.8,3.8,0,0,1,1-2.66,3.19,3.19,0,0,1,2.35-1,1.74,1.74,0,0,1,1.07.37,1.84,1.84,0,0,1,.62,1.23,2,2,0,0,0-.24-1.68,2.19,2.19,0,0,0-1.75-.63,3.15,3.15,0,0,0-1,.14,3.63,3.63,0,0,0-1.65,1.16,4.61,4.61,0,0,0-1.1,3.07,5,5,0,0,0,1.72,3.87,6,6,0,0,0,4.22,1.58q5.88,0,12.19-7.19t6.3-13.93a7.6,7.6,0,0,0-2.57-6,10.21,10.21,0,0,0-6.92-2.24q-9.39,0-17.81,8T38.4,71.71A11.79,11.79,0,0,0,51.05,84.35q8.51,0,18.29-8.54A62,62,0,0,1,62.26,85a18.84,18.84,0,0,1-6.43,4.18q-12.11-3.15-18.22-3.15c-5.25,0-7.88,1-7.88,3S33.17,92.17,40,92.17a58.26,58.26,0,0,0,11.29-1.08Q59.88,93.81,64,94.67a43.81,43.81,0,0,0,8.67.85q6.14,0,9.36-2.21c1.16-.81,1.74-1.4,1.74-1.75a.34.34,0,0,0-.2-.16,1.27,1.27,0,0,0-.36.16A9,9,0,0,1,77.08,94a22.94,22.94,0,0,1-5-.57q-2.56-.59-15.64-4.06a26.34,26.34,0,0,0,11.8-6Q72.66,79.23,76.76,70.23Zm8.87-15.34c2.82-3.3,5.05-5,6.67-5,.52,0,.79.24.79.72q0,2-5.13,8A82.62,82.62,0,0,1,77.22,69.24Q81.86,59.33,85.63,54.89ZM40.37,91.58q-10.08,0-10.08-2.56,0-1.9,4.3-1.91,4.14,0,15.66,3.65A55.1,55.1,0,0,1,40.37,91.58Z"/><path class="cls-1" d="M68.43,3.05A9.25,9.25,0,0,0,61.65.54,21.12,21.12,0,0,0,50.5,4.12Q44.11,0,35,0A36.88,36.88,0,0,0,12.7,7.35Q2.65,14.7,2.64,23.61a9.52,9.52,0,0,0,2.63,7,9.5,9.5,0,0,0,7,2.63q6.71,0,13.6-6.23t6.9-12.35q0-5-5.42-5-5.67,0-11,4.64t-5.38,9.51a5.37,5.37,0,0,0,1,3.35,3.11,3.11,0,0,0,2.55,1.37c.4,0,.6-.09.6-.28s-.18-.19-.53-.25a2.34,2.34,0,0,1-1.77-.82,2.79,2.79,0,0,1-.75-1.95q0-4.59,5.37-9.8t10.06-5.21c3.12,0,4.69,1.53,4.69,4.57q0,5.73-6.76,11.81T12.34,32.71A8.72,8.72,0,0,1,6.2,30.63,7.21,7.21,0,0,1,3.94,25q0-7,8.06-14.83A32,32,0,0,1,35.11.6q9.44,0,14.42,4.19a46.05,46.05,0,0,0-7.34,6.89,80.81,80.81,0,0,0-7.49,9.54Q28.27,31,26.48,33.45a32.32,32.32,0,0,1-4.22,4.62,18.13,18.13,0,0,1-12.5,5.1,11.36,11.36,0,0,1-6.47-1.73A5.64,5.64,0,0,1,1,38.64a5.9,5.9,0,0,1-.26-1.55,8,8,0,0,1,.2-1.89c0-.15.13-.51.26-.94a3.12,3.12,0,0,1,.11-.33,2.57,2.57,0,0,0-.33.33A4.21,4.21,0,0,0,0,37a5.71,5.71,0,0,0,2.8,4.83,12.08,12.08,0,0,0,7,1.94q5.17,0,11.75-3.22a28.33,28.33,0,0,0,8.59-6.13Q33.28,31,37,23.17,43.11,10.52,50,5.23a8.1,8.1,0,0,1,2.42,5.7,9.34,9.34,0,0,1-1.9,5.79,10,10,0,0,1-5.18,3.53,16.57,16.57,0,0,0-3.75-.57q-2,0-2,.57c0,.52.8.78,2.39.78a12.62,12.62,0,0,0,1.51-.09l1.83-.22q5,2.46,5,7.68a15.46,15.46,0,0,1-4,10.28q-4,4.68-8.82,4.68A4.87,4.87,0,0,1,34,42a4.65,4.65,0,0,1-1.41-3.46q0-3.91,3.39-7.65t7-3.75a4.25,4.25,0,0,1,3,1.1,3.8,3.8,0,0,1,1.16,2.9,7.86,7.86,0,0,1-1.63,4.31.93.93,0,0,0-.13.38c0,.17.12.25.35.25s.72-.61,1.23-1.83a8.34,8.34,0,0,0,.75-3,4.51,4.51,0,0,0-1.32-3.35A4.64,4.64,0,0,0,43,26.51q-3.75,0-7.45,3.95c-2.46,2.64-3.7,5.3-3.7,8a5.21,5.21,0,0,0,1.75,4.14,6.9,6.9,0,0,0,4.71,1.53A15.78,15.78,0,0,0,49.1,40.05a12.29,12.29,0,0,0,4.61-9.48q0-7.3-7.84-10,9.54-1.32,9.54-8.35,0-4.36-4.4-7.65A20.3,20.3,0,0,1,61.72,1.1,8.39,8.39,0,0,1,68,3.51a8.74,8.74,0,0,1,2.36,6.38,13,13,0,0,1-.85,4.75,1.08,1.08,0,0,0-.06.28.28.28,0,0,0,.31.32q.41,0,.84-2A16.63,16.63,0,0,0,71,9.7,8.91,8.91,0,0,0,68.43,3.05Z"/><path class="cls-1" d="M74.32,32.6a3.55,3.55,0,0,1-.57.82l-1.35,1.7q-6.53,8-11.19,8.05a4.88,4.88,0,0,1-3.7-1.59,5.59,5.59,0,0,1-1.5-4q0-5.66,7.91-10,4.15-2.26,6.76-2.26a2.9,2.9,0,0,1,1.94.67,2.08,2.08,0,0,1,.8,1.66c0,1.51-1,2.79-3,3.85s-5.26,2.06-9.88,3c-1.43,2.16-2.14,4-2.14,5.41,0,1.81,1,2.71,2.93,2.71q5,0,12.19-9.71c.26-.34.47-.51.64-.51A.18.18,0,0,1,74.32,32.6Zm-2.66-5.84c0-.67-.37-1-1.1-1-1.11,0-2.58.78-4.39,2.32a32,32,0,0,0-5.34,6,24.82,24.82,0,0,0,7.68-3.29Q71.66,28.65,71.66,26.76Z"/><path class="cls-1" d="M96.46,32.57q0,.66-4.61,6.12c-2.48,3-4.43,4.48-5.86,4.48a3,3,0,0,1-2.36-1.09,4.07,4.07,0,0,1-.92-2.72,8.26,8.26,0,0,1,1-3.69,42.67,42.67,0,0,1-4.82,5.95,4.88,4.88,0,0,1-3.24,1.55,3.43,3.43,0,0,1-2.8-1.44,5.58,5.58,0,0,1-1.14-3.6q0-6,8.54-10.71a13.52,13.52,0,0,1,6-2.07,1.7,1.7,0,0,1,2,1.89A5.37,5.37,0,0,1,88,28.65l1.61-3a7.83,7.83,0,0,0,1.67.22,15.25,15.25,0,0,0,2.2-.22l-5.57,9.22Q85,39.68,85,41.21c0,1,.41,1.48,1.23,1.48s2.19-1,4-2.88a53.48,53.48,0,0,0,5.64-7.11c.13-.21.24-.32.35-.32A.17.17,0,0,1,96.46,32.57Zm-8.68-5.21c0-1-.47-1.54-1.42-1.54q-2.89,0-7.6,5.67t-4.71,9.16q0,2,1.83,2,2.18,0,7.52-7.21Q87.78,29.57,87.78,27.36Z"/><path class="cls-1" d="M116.7,32.57c0,.49-1.52,2.52-4.57,6.12-2.52,3-4.52,4.48-6,4.48a3,3,0,0,1-2.35-1.12,4,4,0,0,1-1-2.69,7.81,7.81,0,0,1,1.23-3.43l-.63.84a48.43,48.43,0,0,1-4.25,5,4.25,4.25,0,0,1-2.8,1.42,3,3,0,0,1-2.33-1.09,3.91,3.91,0,0,1-1-2.66,8.37,8.37,0,0,1,1.42-4.19l5.73-9.63a9.44,9.44,0,0,0,1.67.22,19.6,19.6,0,0,0,2.14-.22L96.57,37.94a6.68,6.68,0,0,0-1.14,3.34q0,1.41,1.2,1.41,3.18,0,10.2-11.87l3.09-5.22a8.08,8.08,0,0,0,1.63.22,17.15,17.15,0,0,0,2.24-.22l-5,8.22q-3.59,5.85-3.59,7.52,0,1.35,1.29,1.35,2.53,0,8.2-7.94l1-1.36.57-.69c.1-.21.21-.32.31-.32A.17.17,0,0,1,116.7,32.57Z"/><path class="cls-1" d="M128.3,25.35l-.25.47h-4.12l-7,12a7.43,7.43,0,0,0-1.3,3.47c0,.94.5,1.41,1.49,1.41q2.87,0,9.68-10c.14-.21.27-.32.37-.32a.17.17,0,0,1,.19.19,3.38,3.38,0,0,1-.31.51l-1.36,1.86q-5.92,8.22-8.92,8.23a3.23,3.23,0,0,1-2.47-1.07,3.77,3.77,0,0,1-1-2.68A10,10,0,0,1,115,34.7l5.29-8.88H117l.32-.47h3.14l3.69-6.11a6.88,6.88,0,0,0,1.79.25,7,7,0,0,0,1.83-.25l-3.62,6.11Z"/><path class="cls-1" d="M147.15,32.6c0,.32-1.16,1.75-3.47,4.31a38.51,38.51,0,0,1-10,7.61l-1.55,2.77q-4.56,8.19-9.54,12.19t-8.91,4.12a3,3,0,0,1-2.15-.82,2.65,2.65,0,0,1-.87-2q0-6.33,14.58-13.1c.79-.4,2-1,3.59-1.67l.47-.28,5.54-9.86a51.1,51.1,0,0,1-4.75,5.91,4.42,4.42,0,0,1-3,1.4,2.9,2.9,0,0,1-2.25-1.11,3.79,3.79,0,0,1-1-2.58q0-1.78,2.24-5.6L131,25.69a9.21,9.21,0,0,0,1.67.13,17.09,17.09,0,0,0,2.26-.22l-6.2,10.07Q126,40,126,41.28t1.29,1.41q3.39,0,10.45-12.06l2.9-4.94a9.81,9.81,0,0,0,1.76.13,13.37,13.37,0,0,0,2.11-.22q-3.9,6.2-10.58,18.2a32.32,32.32,0,0,0,6.49-4.29A47.32,47.32,0,0,0,146.39,33c.3-.38.48-.57.57-.57A.17.17,0,0,1,147.15,32.6ZM129,46.25c-.33.19-1.52.79-3.55,1.8q-14.32,7.11-14.33,12.78c0,1.57.88,2.36,2.65,2.36q3.33,0,6.64-3.62t8.18-12.69Z"/><path class="cls-1" d="M100.47,81.33q0,.72-4.57,6.11-3.78,4.49-6,4.48a3,3,0,0,1-2.35-1.12,4,4,0,0,1-1-2.69,7.85,7.85,0,0,1,1.23-3.43l-.63.85a48.43,48.43,0,0,1-4.25,5,4.23,4.23,0,0,1-2.8,1.41,3,3,0,0,1-2.33-1.08,3.92,3.92,0,0,1-.95-2.66A8.44,8.44,0,0,1,78.29,84L84,74.35a8.57,8.57,0,0,0,1.67.22,17.3,17.3,0,0,0,2.14-.22L80.34,86.7A6.68,6.68,0,0,0,79.2,90c0,1,.4,1.42,1.2,1.42q3.18,0,10.2-11.87l3.09-5.23a7.42,7.42,0,0,0,1.63.22,15.55,15.55,0,0,0,2.24-.22l-5,8.22c-2.39,3.91-3.59,6.41-3.59,7.53q0,1.35,1.29,1.35,2.53,0,8.2-8l1-1.35.57-.7c.1-.21.21-.31.31-.31A.17.17,0,0,1,100.47,81.33Z"/><path class="cls-1" d="M125.69,81.33q0,.66-4.57,6.11c-2.5,3-4.47,4.48-5.89,4.48a3,3,0,0,1-2.38-1.1,4,4,0,0,1-1-2.71,6,6,0,0,1,.59-2.63,48.76,48.76,0,0,1,3-4.8q2.55-3.78,2.55-4.81c0-.87-.46-1.3-1.36-1.3q-4.59,0-14.17,17.07c-1-.09-1.64-.13-1.85-.13a15.17,15.17,0,0,0-2.08.13l4.91-7.78q4.18-6.67,4.19-8.34c0-.63-.27-1-.79-1q-1.6,0-6.34,6.79c-.19.27-.34.42-.45.44s-.16-.06-.18-.19a.49.49,0,0,1,.12-.25l.6-.79q4.83-6.46,6.5-6.47a2.27,2.27,0,0,1,1.83,1,3.72,3.72,0,0,1,.75,2.33c0,1.34-.78,3.21-2.36,5.6a54.73,54.73,0,0,1,5.72-7,5.66,5.66,0,0,1,3.7-1.89,2.92,2.92,0,0,1,2.33,1.14,4.21,4.21,0,0,1,.94,2.8c0,1.4-1,3.56-2.9,6.45s-3,4.85-3,5.67a1.15,1.15,0,0,0,1.3,1.29q2.8,0,9.68-10c.1-.21.21-.31.31-.31A.17.17,0,0,1,125.69,81.33Z"/><path class="cls-1" d="M141.31,81.33c0,.27-1.48,2-4.45,5.29q-4.85,5.31-8.25,5.3a5,5,0,0,1-3.78-1.68,5.68,5.68,0,0,1-1.58-4,9.12,9.12,0,0,1,2.14-5.47,18.47,18.47,0,0,1,5.76-4.88,10.76,10.76,0,0,1,5-1.77c1.55,0,2.33.93,2.33,2.77A7.72,7.72,0,0,1,137,81.22c-1,1.45-1.94,2.17-2.91,2.17A1.26,1.26,0,0,1,132.66,82c0-1.11,1-2.14,2.9-3.08,1.49-.74,2.24-1.7,2.24-2.9,0-.94-.52-1.42-1.55-1.42-1.74,0-3.88,1.74-6.42,5.2S126,86.14,126,88.49c0,2,.93,3,2.78,3q4.33,0,11.78-9.81c.28-.33.48-.5.6-.5S141.31,81.22,141.31,81.33Z"/><path class="cls-1" d="M161.43,81.26a.88.88,0,0,1-.32.57l-1.35,1.86q-5.92,8.24-8.83,8.23a3.15,3.15,0,0,1-2.47-1.08,4,4,0,0,1-1-2.73q0-2.2,2.4-5.76c2.5-3.67,3.74-5.86,3.74-6.55s-.43-1.23-1.29-1.23q-1.89,0-5.16,3.72-3.15,3.55-8.66,13.47a8.76,8.76,0,0,0-1.6-.18,12.67,12.67,0,0,0-1.86.18l4.63-8.37q.94-1.8,2.89-5.29,1-1.69,6.39-10.83l4.79-8.12a8.07,8.07,0,0,0,4-.13q-3.27,5.26-9.76,15.74l-4.88,8.13q5.91-8.79,9.35-8.79a2.9,2.9,0,0,1,2.31,1.17,4.29,4.29,0,0,1,1,2.83q0,2.18-2.77,6.27-3.08,4.56-3.08,5.73a1.19,1.19,0,0,0,1.35,1.35q2.46,0,8.14-8l1-1.35.56-.7c.11-.21.23-.31.38-.31S161.43,81.18,161.43,81.26Z"/></g></g></svg>