<svg xmlns="http://www.w3.org/2000/svg" viewBox="0 0 270.33 292.22"><defs><style>.cls-1{fill:#98d3d7;}.cls-2{fill:#fff;}</style></defs><g id="Слой_2" data-name="Слой 2"><g id="Слой_1-2" data-name="Слой 1"><path class="cls-1" d="M221.22,79.83a1.74,1.74,0,0,0-.4,3.45c3.67.1,3.51-4.72.7-5.92-3.35-1.31-6.75,2.8-5.37,6,2.94,6.29,11.51,2.37,11.46-3.65-.79-11.37-17.27-9-19.1.68a15.18,15.18,0,0,0,8.72,17.41c3.17,1.66,12.05,3.52,10.71-2.55a2.65,2.65,0,0,0-4.37-.37,2.79,2.79,0,0,0-.31,1.76,2.34,2.34,0,0,1,1.7-2.9c3.17-.75,4.68,2.69,2.74,5-.8,1.1-2.3,1.26-3.55,1.33a17.78,17.78,0,0,1-13.43-5.75c-5-5.63-5.62-15.68.47-20.79,6.28-5.43,17.46-3.21,17.74,6.16a8.4,8.4,0,0,1-7.4,8.06c-4.13.36-8-4-6.22-8,.94-2.45,4-4.18,6.51-3,3.25,1.59,3.19,7.12-1,6.86a1.89,1.89,0,0,1,.44-3.75Z"/><path class="cls-1" d="M204.59,78.06c-2.08,1-1.87,3.65-.55,5.15-1.11-1.51-1.26-4,.72-4.81a4.31,4.31,0,0,1,5,1c4.72,7.29-7,11.48-9.72,4.15-1.34-4.46.85-9.53.15-14.32a9.4,9.4,0,0,0-1.52-3.48c.09-4.26-3.67-8.32-7.71-9.16a13.83,13.83,0,0,0-5.94.07c0,.12.05.25.08.37,5.54-.73,11.33,1.43,12.32,7.45a6.07,6.07,0,0,0-.73-.47c-2.06-1-5.33-.41-5.69,2.25a3.74,3.74,0,0,0,4.53,4,4.18,4.18,0,0,0,2.64-2,2,2,0,0,1,.09-.26c1.55,3.73-.16,9,0,13a8,8,0,0,0,2.31,5.72c3,3,9.14,2.32,10.75-1.84C212.91,80.43,209.07,75.82,204.59,78.06Zm-9.37-9a2.45,2.45,0,0,1-2.92-2.63c.09-1.43,2.43-1.87,3.77-1.17a6.58,6.58,0,0,1,1.39,1.34A3,3,0,0,1,195.22,69Z"/><path class="cls-1" d="M189.14,52.65c5.64-1.58,10.94,3.7,12.63,8.76.48,2.53.14,5.44,1.95,7.48a5.42,5.42,0,0,0,6.59,1.21c3.58-1.51,4.27-6.72.73-8.64-3.86-1.86-8.11,2-4.64,5.47,1.26,1.14,4.59.78,4-1.51a1.34,1.34,0,0,0-1.58-.84c1.67-.54,2.58,1.7,1.35,2.81-2.79,2.08-6.27-.66-5.83-3.88s4.59-4.48,7.29-3.17c6.59,3.78,1.79,13.08-5.07,11.69-3.07-.52-5.14-3.38-5.57-6.3-.27-1.34-.05-2.71-.37-4-1.35-4.68-6.11-9.87-11.45-9.06Z"/><path class="cls-1" d="M237.83,94.05a1.89,1.89,0,0,1-3.63,1c-.94-4.12,4.58-5.07,6.62-2.1a4.41,4.41,0,0,1,.4,3.85c-1.13,4.19-7.06,5.14-9.66,1.77-3.95-4.27-.11-11.39,5.21-12.18,9.29-1.17,13.22,9.53,8.83,16.58-4.1,6.8-14.13,7.75-20.46,3.68a17.79,17.79,0,0,1-7.77-12.38c-.12-1.25-.2-2.75.77-3.71,2-2.28,5.63-1.33,5.39,1.92a2.34,2.34,0,0,1-2.6,2.13,2.21,2.21,0,0,0,2.38-2.14c.08-2.92-3.05-3.64-4.76-1.55-.78.83-.62,2.09-.47,3.26a15,15,0,0,0,2.63,6.57,15.21,15.21,0,0,0,18.56,5.92c9.31-3.31,9.07-20-2.29-19-6,.88-8.49,10-1.83,11.88,3.36.87,6.9-3.12,5.08-6.23-1.63-2.59-6.41-2-5.74,1.61a1.74,1.74,0,0,0,3.34-.93Z"/><path class="cls-1" d="M265.06,131.88c2.56-7-.28-17.22-9.07-16.69-1.73.08-3.34,1.08-3.48,2.87a2.46,2.46,0,0,0,3.05,2.48c1.4-.3,1.48-2.68.58-3.9-5.07-5.18-12.95,1.58-19,.17-5.62-.82-7.71-9.21-2.71-12.18,4.09-2.28,9.23.79,7.72,5.57a2.83,2.83,0,0,1-2.17,2,4.58,4.58,0,0,1-2.84-.61c1.67.87,4.15.63,4.64-1.45,1.12-4.26-3.47-6.74-6.9-4.67-3.09,1.85-2.67,7.18.13,9.09,3.26,2.4,7.13.5,10.66-.25,3.72-1.05,8.81-2.07,11.59,1.58,1.31,1.88,1.23,5.21-1.35,6a3.78,3.78,0,0,1-3.06-6.77c4.66-2.82,10.89.69,12.63,5.32a16.05,16.05,0,0,1-.43,11.52Z"/><path class="cls-1" d="M270.3,124.39a13.24,13.24,0,0,0-9.4-12.4c-2.78-1-5.62.48-8.43-.46-7.27-1.68-6.34-12.84,1.07-13.35a6.18,6.18,0,0,1,4.37,1.59c2.33,2.19,2.25,6.7-.76,8.26s-6.9-1.48-5.42-4.79c.78-1.56,3.37-1.11,3.09.73a1.32,1.32,0,0,0-1.15-1.44c-2.43-.14-2.07,3.46-.55,4.36,6.68,3.4,7.15-7.88.47-7.39-5.66.43-6.52,9.44-.77,10.75,2.72.9,5.73-.53,8.42.68a13.31,13.31,0,0,1,9.06,13.46Z"/><path class="cls-1" d="M230.6,85.77c.53.15,1-.45,1.46-.7,1.31-1,2.69-2.11,3.92-3.16,3.61-3.45,9.37-7.11,10.2-12.34.44-2.15.28-2.91-2.29-1.85-5.25,2-7.63,7.59-10.57,12a46.22,46.22,0,0,0-2.41,4.43c-.17.5-.54,1.07-.31,1.59Zm0,0c-.27-1.07.62-2.15,1-3.13l1.49-3,3-6.05c1.66-3.63,4.69-7.28,8.89-8.16,4.86-.75,3.27,5.47,1.66,7.92-2.26,3.61-7.24,6.25-10.47,8.79l-2.71,2-1.36,1c-.45.24-.94.83-1.48.67Z"/><path class="cls-1" d="M134.14,26c-.51-.22-.5-1-.69-1.46l-.39-1.64-.76-3.28c-.8-4-2.85-9.26-2.22-13.48.36-2.91,3.2-8.68,6.41-4.94,2.61,3.4,2.54,8.15,1.44,12l-1.67,6.54L135.43,23c-.36,1-.38,2.39-1.29,3Zm0,0c.52-.24.61-.91.8-1.41A45.45,45.45,0,0,0,136,19.68c.66-5.28,2.51-11.1-.19-16-1.25-2.45-1.87-2-3-.08-2.77,4.5-.78,11.05-.28,16,.25,1.6.55,3.37.92,5,.17.48.14,1.24.65,1.47Z"/><path class="cls-1" d="M72.06,51.48c4.49-5.76,11-10.9,18.66-11.07,3.82-.23,7.21,1.64,10.93,1.57a28.53,28.53,0,0,0,21.92-10.7A11,11,0,0,0,126.15,25c0-4.42-4.53-8.82-9-8.58-4.55.09-8.77,5.38-6.34,9.63a5.2,5.2,0,0,0,5.82,2.57,5.44,5.44,0,0,0,2.9-1.83c1.56-1.87.17-5.06-2.15-5.53a3.62,3.62,0,0,0-3.26,1.21,3.72,3.72,0,0,1,3.3-1.43,3.93,3.93,0,0,1,2.85,2.34c1.91,4.08-3.84,7.47-7.31,5.71-7.36-3.48-3.06-13.74,4.11-13.93A10.44,10.44,0,0,1,127.54,25a12.38,12.38,0,0,1-2.81,7.17A30.59,30.59,0,0,1,105.4,43c-5,1-9.82-1.58-14.67-1.7-7.47,0-13.86,4.73-18.67,10.15Z"/><path class="cls-1" d="M163.7,41.87a28.88,28.88,0,0,1-19.48-10.75,10.56,10.56,0,0,1-2.46-6.3c.18-4.38,4.66-8.73,9.12-8.39,4.53.16,8.67,5.5,6.18,9.68a5.19,5.19,0,0,1-5.84,2.49c-2.22-.52-4.33-2.73-3.23-5.1a3.38,3.38,0,0,1,5.8-1A3.74,3.74,0,0,0,150.5,21a3.93,3.93,0,0,0-2.86,2.31c-1.94,4.06,3.76,7.47,7.24,5.76,7.37-3.36,3.25-13.63-3.89-13.93-5.35-.34-10.26,4.31-10.62,9.6A12,12,0,0,0,143.05,32a30.25,30.25,0,0,0,19.48,11A10.36,10.36,0,0,1,163.7,41.87Z"/><path class="cls-1" d="M95,38.66l-.08,0m1.49,3.45c1.61.42,3,.82,4,1.16,1.74.55,2.8,1,3.13,1.07,1,.38,1.68.68,1.84.75,1.29.56,2.23,1.05,2.5,1.19,2.21,1.16,5.8,2.71,6.93,3.18a45.07,45.07,0,0,0,9,2.56,43.21,43.21,0,0,0,12,1.11,40.08,40.08,0,0,0,8.27-1.48,66.73,66.73,0,0,0,18.17-8.16c.35-.33.76-.62,1.13-1a60.45,60.45,0,0,1,7.7-1.44,57.77,57.77,0,0,1,7.93-.35l10.47,6.52c.56.37,1.15.72,1.75,1.09-.91,1.82.48,3.62,2.27,4.09-5.41.08-9.16-4.37-14-6.48a6.13,6.13,0,0,0-5.85.68,1.13,1.13,0,0,1-.26.11c-1.47-.11-3-.19-4.59-.23s-3.14-.06-4.64,0c1.44.29,3,.55,4.64.74s3.22.31,4.67.37l.08,0a.87.87,0,0,1,.27.15l.45.25c.42.22,1.37.82,1.8,1a25.41,25.41,0,0,1,7.24,6.69,4.14,4.14,0,0,0,1.49,4.78s0,0,0,.07-.31.12-.89,0l-.8,0c-1.14-1.3-2.33-2.58-3.55-3.8-.37-.35-1.28-1.26-1.65-1.59a25.37,25.37,0,0,0-5-2.37c-3.82-.79-7.16,1.42-10.38,3.09a21.4,21.4,0,0,0,2.49-.6c-1,2.09-.84,3.26,0,3.8-.75,1-1.78,1.76-2.52,2.83a9.78,9.78,0,0,0,1.63-1.12,8.33,8.33,0,0,0,1.42-1.56c.27,0,.7,0,1.22-.09a22.51,22.51,0,0,0,3-.58c1.23-.28,1.61-.26,2.68-.47a39.85,39.85,0,0,0,5.24-1.4l2.36,1.81a16.77,16.77,0,0,1,2.16,2.13c-3.36,0-5.78,1.69-8.91,2.7-5.68,1.86-8.49,2.87-11.63,4.19a27.89,27.89,0,0,1-6.44,2.17,34.94,34.94,0,0,1-5.39.44c-2.6.1-4.78,0-6.33,0l-49-11c-.59-.13-1.07-.26-1.07-.26-.93-.24-2.43-.63-4.23-1.26C88,57.24,87.08,56.85,87,57s0,.11.05.15l.31.12c1.07.44,1.44.71,2.28,1l.42.13,1.06.32,3,.88c1.53.43,21.66,5.12,49.31,11.34A44.9,44.9,0,0,0,150,71c3.79-.27,8.17-.51,12.16-2.64a31.06,31.06,0,0,1,5.59-2.46c3.26-1,4.56-1.15,6.38-1.71,1.09-.35,2.1-.8,2.52-1,3.09-1.26,4.19-2,5.63-1.78a10.65,10.65,0,0,0,1.49.15,9.3,9.3,0,0,0,1.65-.08,3.16,3.16,0,0,0,2,.66c.13,0,.46-.25.5-.4.26-3.42-3-5.44-4.71-8a24.25,24.25,0,0,0-7.68-6.46,1.32,1.32,0,0,1-.25-.16c3.06-1.24,5.85,1,8.49,2.68,3,2.11,6.54,4.34,10.44,3.78,2.5,1.24,4.54-.74,2.44-2.93-3.47-3.47-11.69-7.83-16.19-10.74a3.73,3.73,0,0,1,3.41-1.56,24.21,24.21,0,0,1,5,1.36,16.38,16.38,0,0,0,5.69.55,31.08,31.08,0,0,0,5.19-.74,3.56,3.56,0,0,0,2-1,1.74,1.74,0,0,0,.52-1.34c0-.1-.05-.31-.4-.54l-3.75-1.32c-1-.29-2.94-.76-3.93-.93-5.24-.84-10.4-2.79-15.77-2.64a5.56,5.56,0,0,0-2,.89c-5,3.05-10.53,6-14.78,10-5.45,3.55-11.81,5.66-17.86,8.11-2.81,1.13-8.35,1.88-15.27,1.08a55.67,55.67,0,0,1-9.86-2.19,48.22,48.22,0,0,1-6.16-2.25l-3.61-1.75a59.32,59.32,0,0,0-5.53-2.48c-.42-.16-.75-.28-1.2-.43a24.49,24.49,0,0,0-5.37-1.16m71,16.43c-.49.12-1.71.56-2.29,0s-.17-2.37-.15-2.89a17.66,17.66,0,0,1,4.17-1,7.28,7.28,0,0,1,4.36.57l2.77,1.14a2.08,2.08,0,0,1,.51.27s.08,0,.09.08A69,69,0,0,0,167.74,58.05ZM184,56.69A9.58,9.58,0,0,1,186.75,61a8.1,8.1,0,0,1-1.17-.62l-.23-.12a2.14,2.14,0,0,1-.33-.33,6.42,6.42,0,0,1-1.22-2,5.55,5.55,0,0,1-.23-1.81C183.72,56.31,183.88,56.5,184,56.69Zm7.51-8.18a14.16,14.16,0,0,1,2.5,1.71,13,13,0,0,1,2.06,2.21s0,.07-.06.13-.27.25-1.38-.19a5.38,5.38,0,0,1-2.87-2,2.35,2.35,0,0,1-.27-.64A2.66,2.66,0,0,1,191.54,48.51Zm-2.33-10c-1.78-.54-2.7-.91-3.9-1.18A8.42,8.42,0,0,0,183.9,37a5.53,5.53,0,0,0-4.17,1.47,4.48,4.48,0,0,0-1,1.46c-1.11-.08-2.64-.14-4.44-.1-.39,0-1.87.06-3.15.19a24,24,0,0,0-7.27,2,90.71,90.71,0,0,1,11.37-7.49c.83-.39,2.52-1.63,3.29-1.72,5.08-.08,10.36,1.88,15.36,2.71l.66.14a3.18,3.18,0,0,0,.55,2,3.22,3.22,0,0,0,1.7,1.26A18.29,18.29,0,0,1,189.21,38.46Zm10.34.06c-.47.1-.93.16-1.4.25a4.22,4.22,0,0,1-2.56-1.59,3.67,3.67,0,0,1-.64-1.41c.18,0,.37.11.58.15a2.25,2.25,0,0,0,.33.08c1.11.25,3.63,1.12,5.07,1.65A1.8,1.8,0,0,1,199.55,38.52Z"/><path class="cls-1" d="M60.85,72a6.68,6.68,0,0,0,7.8-3.88c1.36-2.62.37-5.66,1.76-8.25a13.25,13.25,0,0,1,13.71-7.37,13.33,13.33,0,0,0-14.71,6.86c-1.61,2.48-.66,5.67-2,8.22-2.19,5.47-11,3.23-10.5-2.42a4.89,4.89,0,0,1,1.71-3.24c1.8-1.51,5.53-1.06,6.38,1.31.86,2.61-1.82,5.46-4.47,4a1.42,1.42,0,0,1,1-2.62,1.44,1.44,0,0,0-1.81.85c-.79,2.75,3.38,3.39,4.93,1.8,4.41-4.69-2.35-9.69-6.79-6.35C53.59,64.32,55.83,70.76,60.85,72Z"/><path class="cls-1" d="M9.43,112c2.78-1,5.62.48,8.43-.46,7.27-1.68,6.34-12.84-1.07-13.35a6.18,6.18,0,0,0-4.37,1.59c-2.33,2.19-2.24,6.7.76,8.26s6.9-1.47,5.42-4.79c-.78-1.56-3.37-1.11-3.09.73a1.32,1.32,0,0,1,1.15-1.44c2.44-.14,2.07,3.46.55,4.36-4.39,2.72-7.06-3.22-3.93-6.2s7.9-.26,8.17,3.88a5.28,5.28,0,0,1-3.94,5.68c-2.72.9-5.72-.53-8.42.68A13.32,13.32,0,0,0,0,124.39,13.24,13.24,0,0,1,9.43,112Z"/><path class="cls-1" d="M39.74,85a1.8,1.8,0,0,1,0,.73A1,1,0,0,0,39.74,85Z"/><path class="cls-1" d="M34.18,82.12l2.71,2,1.36,1c.45.24,1,.83,1.48.67-.54.15-1-.45-1.45-.7-1.32-1-2.7-2.11-3.93-3.16-3.6-3.44-9.37-7.12-10.2-12.34-.44-2.17-.25-2.9,2.29-1.85,5.25,2,7.63,7.59,10.57,12a46.22,46.22,0,0,1,2.41,4.43c.1.27.24.57.32.86a12.9,12.9,0,0,0-1-2.4l-1.5-3-3-6.05c-1.67-3.63-4.7-7.28-8.89-8.16-4.87-.76-3.27,5.48-1.66,7.92C26,77,30.94,79.57,34.18,82.12Z"/><path class="cls-1" d="M93.42,59.39l-1.61-.68,1.34.38L88.1,57.32C83.35,55.41,77.36,55.75,73.89,60a9,9,0,0,0-2.21,5.81c-3.16,4.13-.83,10.57-.91,15.41a6,6,0,0,1-6.86,6.13,4.67,4.67,0,0,1-.76-.17,15.44,15.44,0,0,0-.65-9c2.89-.88,6.25,1.49,3.79,5,2.91-3.6-.78-6.4-4-5.57a11.82,11.82,0,0,0-3.1-4.1c-4-3.24-10.3-4.27-14.46-.78-4.32,3.51-4.38,10.52.41,13.64,4.64,3.7,12.22-.74,9.92-6.64-.94-2.45-4-4.18-6.51-3-3.25,1.58-3.19,7.12,1,6.86a1.89,1.89,0,0,0-.44-3.75,1.74,1.74,0,0,1,.4,3.45c-3.67.1-3.51-4.71-.7-5.92,3.35-1.32,6.75,2.8,5.37,6-2.94,6.28-11.5,2.37-11.45-3.65.72-10.44,14.62-9.3,18.33-1.55a4.74,4.74,0,0,0-1,.73,5.8,5.8,0,0,0,1.62,8.89,15,15,0,0,1-8.61,10,11,11,0,0,1-1.17.52,16.31,16.31,0,0,0,1-4c.12-1.25.2-2.75-.77-3.71-2-2.29-5.64-1.33-5.39,1.92a2.33,2.33,0,0,0,2.6,2.13A2.22,2.22,0,0,1,47,92.49c-.07-2.93,3-3.64,4.76-1.55.79.83.62,2.09.48,3.26a14.06,14.06,0,0,1-1.43,4.48c-3.86,1.18-9.5,1.49-8.44-3.45a2.65,2.65,0,0,1,4.37-.37,2.79,2.79,0,0,1,.31,1.76,2.33,2.33,0,0,0-1.7-2.9c-3.18-.74-4.68,2.68-2.74,5,.8,1.1,2.3,1.26,3.55,1.33a15.8,15.8,0,0,0,4.11-.4c-.22.37-.43.74-.67,1.09a15,15,0,0,1-11.24,7A5.59,5.59,0,0,0,29,105.6c-7.11-4.85-6.08-18.79,4.35-17.88,5.95.88,8.5,10,1.83,11.88-3.36.87-6.89-3.12-5.08-6.23,1.66-2.59,6.39-2,5.75,1.61a1.74,1.74,0,0,1-3.35-.93,1.89,1.89,0,0,0,3.63,1C37.07,91,31.56,90,29.52,93c-1.52,2.34-.28,5.6,2,6.91a5.7,5.7,0,0,0,7.26-1.29c3.95-4.27.11-11.39-5.21-12.18-9.29-1.17-13.22,9.53-8.83,16.58a11.73,11.73,0,0,0,3.58,3.7,4.81,4.81,0,0,0-.14,3.51,2.83,2.83,0,0,0,2.17,2,4.58,4.58,0,0,0,2.84-.61c-1.66.87-4.15.63-4.64-1.45a4.31,4.31,0,0,1,.25-3.07,15.4,15.4,0,0,0,8.74,2,6,6,0,0,1-2.21,5.46c-3.26,2.4-7.14.5-10.67-.25-2.94-.83-6.72-1.61-9.55-.1-4.2-.75-8.8,2.33-10.26,6.2a16.1,16.1,0,0,0,.43,11.52C2.78,125,5.44,115.2,13.7,115.2a4.84,4.84,0,0,0-.64.64c-1.31,1.89-1.22,5.2,1.35,6A3.78,3.78,0,0,0,17.47,115a2.49,2.49,0,0,0-.28-.15c4.86-1.24,11,3.08,16,1.92,3.74-.55,5.9-4.43,5.47-7.85a15.74,15.74,0,0,0,6.55-2.29,18.42,18.42,0,0,0,6.26-7.29,18.31,18.31,0,0,0,8.15-5,15.54,15.54,0,0,0,3.27-6.1,6.09,6.09,0,0,0,.87.17c4.32,1,8.43-2.89,8.34-7.23.19-4.07-1.59-9.37,0-13.2a3.91,3.91,0,0,0,3.2,2.38,3.73,3.73,0,0,0,4-4.56c-.83-2.48-4-2.76-5.94-1.6-.18.12-.32.26-.48.39.4-3.19,3.26-6.22,6.26-7.21a11,11,0,0,1,2-.52,16.94,16.94,0,0,1,2.4,0c.54,0,1,.09,1.5.16s.67.15,1,.26c1.13.31,1.61.54,2.54.83h0l.58.18.44.11,1.12.3h0Zm-75.6,58.67a2.46,2.46,0,0,1-3.05,2.48c-1.4-.3-1.48-2.68-.58-3.9a6.65,6.65,0,0,1,1.56-1.16A3,3,0,0,1,17.82,118.06Zm13.24-11.37a9.1,9.1,0,0,1-1.51-.71,4.85,4.85,0,0,1,5.89-.56,4.3,4.3,0,0,1,1.81,2.38A14.4,14.4,0,0,1,31.06,106.69ZM60.62,79.34a4.22,4.22,0,0,1,.73-.61,8.85,8.85,0,0,1,.47,1.64A14.46,14.46,0,0,1,62,86.68,4.92,4.92,0,0,1,60.62,79.34ZM74,65.38c1.23-.84,3.62-.53,3.94.78a2.48,2.48,0,0,1-4.54,1.78,5.92,5.92,0,0,1-.51-1.4A6.06,6.06,0,0,1,74,65.38Zm17.29-6.74-1.06-.37,1.31.37Zm-.53,0,.3.06h-.17Z"/><path class="cls-1" d="M49.11,212.39a1.74,1.74,0,0,0,.4-3.45c-3.67-.1-3.51,4.72-.7,5.93,3.35,1.31,6.75-2.8,5.37-6-2.94-6.29-11.51-2.37-11.45,3.64.78,11.38,17.26,9,19.09-.67a15.19,15.19,0,0,0-8.72-17.42c-3.17-1.66-12-3.52-10.71,2.55a2.65,2.65,0,0,0,4.38.37,2.77,2.77,0,0,0,.3-1.75,2.34,2.34,0,0,1-1.7,2.9c-3.17.75-4.68-2.7-2.74-5,.8-1.11,2.3-1.26,3.55-1.34a17.79,17.79,0,0,1,13.43,5.76c5,5.63,5.62,15.68-.46,20.79-6.29,5.42-17.47,3.2-17.75-6.16a8.41,8.41,0,0,1,7.4-8.07c4.13-.36,8,4,6.22,8-.94,2.46-4,4.19-6.51,3-3.25-1.59-3.19-7.12,1-6.86a1.89,1.89,0,0,1-.44,3.74Z"/><path class="cls-1" d="M65.74,214.17c2.08-1,1.87-3.66.55-5.16,1.11,1.51,1.26,4-.72,4.81a4.3,4.3,0,0,1-5-1c-4.72-7.28,7-11.48,9.72-4.15,1.34,4.46-.85,9.54-.15,14.32a9.33,9.33,0,0,0,1.52,3.48c-.08,4.26,3.67,8.33,7.72,9.17a13.94,13.94,0,0,0,5.93-.07c0-.13,0-.25-.08-.38-5.54.73-11.33-1.43-12.31-7.44a5.21,5.21,0,0,0,.72.46c2.06,1,5.33.41,5.69-2.25a3.75,3.75,0,0,0-4.53-4,4.18,4.18,0,0,0-2.64,2c0,.09,0,.18-.08.27-1.56-3.74.16-9,0-13a8.1,8.1,0,0,0-2.3-5.73c-3-3.05-9.15-2.31-10.75,1.84C57.42,211.79,61.26,216.4,65.74,214.17Zm9.37,9A2.46,2.46,0,0,1,78,225.81c-.08,1.43-2.42,1.88-3.76,1.17a6.15,6.15,0,0,1-1.4-1.33A3,3,0,0,1,75.11,223.18Z"/><path class="cls-1" d="M81.19,239.57c-5.64,1.58-10.93-3.69-12.63-8.76-.48-2.53-.14-5.44-2-7.48A5.43,5.43,0,0,0,60,222.12c-3.59,1.51-4.28,6.72-.74,8.65,3.86,1.86,8.11-2,4.64-5.47-1.25-1.15-4.59-.78-4,1.5a1.33,1.33,0,0,0,1.58.84c-1.67.54-2.57-1.7-1.35-2.81,2.79-2.07,6.27.67,5.83,3.88s-4.59,4.49-7.29,3.17c-6.58-3.77-1.79-13.08,5.07-11.68,3.07.51,5.14,3.37,5.57,6.29.27,1.35,0,2.72.37,4,1.35,4.69,6.12,9.87,11.45,9.06Z"/><path class="cls-1" d="M32.5,198.18a1.89,1.89,0,0,1,3.63-1c.94,4.11-4.58,5.06-6.61,2.09a4.42,4.42,0,0,1-.41-3.85c1.13-4.18,7.06-5.14,9.66-1.76,3.95,4.26.11,11.38-5.21,12.17-9.29,1.17-13.22-9.52-8.83-16.57,4.11-6.8,14.13-7.75,20.47-3.68A17.79,17.79,0,0,1,53,197.94c.12,1.24.2,2.75-.77,3.71-2,2.28-5.63,1.33-5.39-1.93a2.33,2.33,0,0,1,2.6-2.12A2.2,2.2,0,0,0,47,199.73c-.08,2.93,3,3.64,4.76,1.55.79-.83.62-2.09.48-3.26a15.18,15.18,0,0,0-2.64-6.57,15.21,15.21,0,0,0-18.56-5.92c-9.31,3.32-9.07,20,2.29,19,6-.89,8.5-9.95,1.83-11.88-3.35-.88-6.89,3.12-5.08,6.22,1.63,2.59,6.41,2,5.75-1.6a1.74,1.74,0,0,0-3.35.93Z"/><path class="cls-1" d="M5.27,160.34c-2.55,7,.28,17.23,9.07,16.7,1.73-.08,3.34-1.08,3.48-2.88a2.46,2.46,0,0,0-3.05-2.48c-1.4.31-1.48,2.69-.58,3.9,5.07,5.18,13-1.58,19-.17,5.62.83,7.71,9.21,2.72,12.19-4.1,2.27-9.23-.8-7.73-5.58a2.83,2.83,0,0,1,2.17-2,4.58,4.58,0,0,1,2.84.61c-1.66-.86-4.15-.62-4.64,1.46-1.12,4.25,3.48,6.73,6.9,4.66,3.09-1.85,2.67-7.17-.12-9.09-3.27-2.4-7.14-.49-10.67.26-3.72,1.05-8.81,2.07-11.59-1.58-1.31-1.89-1.22-5.21,1.35-6a3.79,3.79,0,0,1,3.06,6.78c-4.66,2.82-10.89-.7-12.63-5.33a16.11,16.11,0,0,1,.43-11.52Z"/><path class="cls-1" d="M0,167.83a13.28,13.28,0,0,0,9.4,12.41c2.78,1,5.63-.49,8.43.45,7.27,1.68,6.34,12.84-1.07,13.35a6.18,6.18,0,0,1-4.37-1.59c-2.33-2.19-2.24-6.7.76-8.25s6.91,1.47,5.42,4.79c-.78,1.55-3.37,1.1-3.09-.74a1.33,1.33,0,0,0,1.16,1.45c2.43.13,2.06-3.47.54-4.37-6.68-3.4-7.14,7.88-.46,7.39,5.65-.42,6.51-9.43.76-10.75-2.72-.9-5.73.53-8.42-.67A13.33,13.33,0,0,1,0,167.83Z"/><path class="cls-1" d="M39.73,206.46c-.53-.16-1,.45-1.45.69-1.32,1-2.69,2.11-3.93,3.17-3.61,3.44-9.37,7.11-10.2,12.33-.43,2.15-.27,2.91,2.29,1.86,5.25-2,7.63-7.59,10.57-12A44.11,44.11,0,0,0,39.42,208c.18-.5.55-1.06.31-1.58Zm0,0c.28,1.07-.61,2.15-1,3.13l-1.5,3-3,6.06c-1.67,3.62-4.7,7.28-8.89,8.15-4.87.76-3.28-5.47-1.66-7.91,2.26-3.61,7.24-6.26,10.46-8.79l2.71-2,1.36-1c.46-.24.94-.83,1.48-.66Z"/><path class="cls-1" d="M136.19,266.2c.52.22.5,1,.69,1.46l.39,1.64.76,3.28c.8,4.05,2.86,9.26,2.23,13.49-.37,2.9-3.21,8.67-6.42,4.93-2.61-3.4-2.53-8.14-1.44-12l1.67-6.54.83-3.26c.36-1,.39-2.38,1.29-3Zm0,0c-.52.24-.6.92-.79,1.41a43.69,43.69,0,0,0-1.06,4.93c-.66,5.29-2.51,11.1.2,16,1.25,2.45,1.87,2,2.94.08,2.77-4.5.78-11.05.29-16-.26-1.6-.56-3.36-.92-5-.18-.47-.15-1.23-.66-1.47Z"/><path class="cls-1" d="M198.28,240.74c-4.49,5.76-11,10.91-18.67,11.07-3.82.23-7.21-1.63-10.93-1.56a28.5,28.5,0,0,0-21.91,10.69,10.9,10.9,0,0,0-2.58,6.29c0,4.41,4.52,8.81,9,8.58s8.78-5.39,6.34-9.63a5.18,5.18,0,0,0-5.82-2.57,5.4,5.4,0,0,0-2.9,1.82c-1.56,1.88-.17,5.06,2.15,5.53a3.57,3.57,0,0,0,3.26-1.21,3.72,3.72,0,0,1-3.3,1.43,3.92,3.92,0,0,1-2.85-2.33c-1.91-4.09,3.85-7.47,7.31-5.71,7.37,3.47,3.07,13.73-4.1,13.92a10.42,10.42,0,0,1-10.44-9.83,12.25,12.25,0,0,1,2.81-7.17,30.6,30.6,0,0,1,19.32-10.87c5-1,9.82,1.59,14.67,1.71,7.48,0,13.87-4.74,18.68-10.16Z"/><path class="cls-1" d="M106.63,250.35a28.88,28.88,0,0,1,19.48,10.75,10.56,10.56,0,0,1,2.46,6.3c-.18,4.38-4.66,8.73-9.12,8.39-4.53-.15-8.67-5.49-6.17-9.68a5.17,5.17,0,0,1,5.83-2.49c2.22.53,4.33,2.73,3.23,5.1a3.37,3.37,0,0,1-5.8,1,3.74,3.74,0,0,0,3.29,1.43,3.88,3.88,0,0,0,2.86-2.31c1.94-4.05-3.76-7.47-7.24-5.76-7.37,3.36-3.25,13.63,3.89,13.94,5.36.34,10.26-4.32,10.62-9.61a12,12,0,0,0-2.68-7.21,30.27,30.27,0,0,0-19.48-11A10.36,10.36,0,0,1,106.63,250.35Z"/><path class="cls-1" d="M175.38,253.57l.08,0M174,250.15c-1.61-.42-3-.82-4-1.16-1.74-.54-2.81-.94-3.14-1.07-1-.37-1.68-.67-1.84-.74-1.29-.57-2.23-1.06-2.49-1.2-2.22-1.16-5.81-2.71-6.94-3.18a45.07,45.07,0,0,0-9-2.56,43.21,43.21,0,0,0-12-1.11,40.78,40.78,0,0,0-8.26,1.48,66.73,66.73,0,0,0-18.18,8.17c-.35.33-.76.62-1.12.95a62.37,62.37,0,0,1-7.7,1.43,58,58,0,0,1-7.94.35L80.85,245c-.56-.36-1.14-.71-1.75-1.08.92-1.82-.48-3.63-2.27-4.09,5.42-.08,9.16,4.36,14,6.47a6.17,6.17,0,0,0,5.86-.67l.25-.12c1.47.12,3,.19,4.59.23s3.15.06,4.64,0c-1.44-.29-3-.54-4.64-.74s-3.22-.31-4.67-.37c0,0-.06,0-.08,0a1,1,0,0,1-.27-.16l-.45-.25c-.42-.21-1.37-.82-1.8-1.05a25.24,25.24,0,0,1-7.23-6.69,4.14,4.14,0,0,0-1.5-4.77s0-.06,0-.08.31-.12.9,0l.79,0c1.15,1.3,2.33,2.58,3.55,3.8.37.35,1.28,1.26,1.65,1.59a25.37,25.37,0,0,0,5,2.37c3.82.79,7.16-1.42,10.38-3.09a19.47,19.47,0,0,0-2.48.61c1-2.1.83-3.26,0-3.81.75-1,1.78-1.76,2.52-2.83a9.33,9.33,0,0,0-1.63,1.13,8,8,0,0,0-1.42,1.55c-.27,0-.69,0-1.22.1a21.32,21.32,0,0,0-3,.58c-1.22.27-1.61.25-2.68.46a41.51,41.51,0,0,0-5.24,1.4c-.77-.6-1.57-1.2-2.36-1.8a16.73,16.73,0,0,1-2.15-2.14c3.35,0,5.77-1.68,8.9-2.69,5.68-1.87,8.49-2.87,11.63-4.19a27.43,27.43,0,0,1,6.44-2.17,35,35,0,0,1,5.4-.45c2.6-.1,4.77,0,6.32,0,27.31,6.1,47.16,10.54,49.05,10.95.58.13,1.06.27,1.06.27.93.24,2.44.62,4.23,1.25,1.2.42,2.15.81,2.24.65s0-.11,0-.14l-.31-.13c-1.08-.44-1.44-.71-2.29-1l-.41-.14-1.06-.32-3-.88c-1.53-.43-21.66-5.11-49.3-11.34a43.45,43.45,0,0,0-6.52-.05c-3.78.27-8.17.5-12.16,2.63a30.8,30.8,0,0,1-5.59,2.47c-3.26,1-4.56,1.14-6.38,1.7-1.09.35-2.09.8-2.52,1-3.08,1.26-4.19,2-5.63,1.79a8.83,8.83,0,0,0-1.49-.16,9.3,9.3,0,0,0-1.65.08,3.14,3.14,0,0,0-2-.66c-.13,0-.46.25-.5.41-.25,3.41,3,5.43,4.71,8a24.51,24.51,0,0,0,7.68,6.46,1.74,1.74,0,0,1,.26.15c-3.07,1.24-5.86-1-8.5-2.67-3-2.12-6.54-4.35-10.44-3.79-2.5-1.24-4.53.74-2.44,2.93,3.47,3.47,11.7,7.84,16.2,10.75a3.77,3.77,0,0,1-3.42,1.55,23.77,23.77,0,0,1-5-1.36,16.14,16.14,0,0,0-5.68-.54,30.11,30.11,0,0,0-5.2.74,3.53,3.53,0,0,0-2,1,1.79,1.79,0,0,0-.52,1.34.82.82,0,0,0,.4.55l3.75,1.31c1,.3,3,.76,3.94.94,5.23.83,10.39,2.79,15.76,2.63a5.56,5.56,0,0,0,2-.89c5-3,10.53-5.95,14.78-10,5.45-3.55,11.81-5.66,17.87-8.1,2.8-1.14,8.34-1.89,15.26-1.09a55.83,55.83,0,0,1,9.87,2.19,48.22,48.22,0,0,1,6.16,2.25l3.61,1.76A59.43,59.43,0,0,0,167,249c.41.16.74.29,1.19.44a23.91,23.91,0,0,0,5.37,1.15m-71-16.43c.49-.11,1.71-.56,2.29,0s.18,2.37.16,2.89a17.3,17.3,0,0,1-4.17,1,7.3,7.3,0,0,1-4.37-.56l-2.77-1.15a1.57,1.57,0,0,1-.51-.27.23.23,0,0,1-.09-.08A65.87,65.87,0,0,0,102.59,234.17ZM86.3,235.53a9.56,9.56,0,0,1-2.72-4.31,8.1,8.1,0,0,1,1.17.62A1.29,1.29,0,0,1,85,232a2.19,2.19,0,0,1,.33.33,6.4,6.4,0,0,1,1.22,2,5.57,5.57,0,0,1,.24,1.8C86.61,235.92,86.46,235.72,86.3,235.53Zm-7.51,8.18a14.41,14.41,0,0,1-2.5-1.7,12.89,12.89,0,0,1-2.05-2.21.34.34,0,0,1,.05-.14c.06-.06.28-.25,1.38.19a5.45,5.45,0,0,1,2.87,2,2.16,2.16,0,0,1,.27.64A2.65,2.65,0,0,1,78.79,243.71Zm2.33,10c1.79.54,2.7.91,3.9,1.18a8.6,8.6,0,0,0,1.42.26,5.57,5.57,0,0,0,4.17-1.48,4.74,4.74,0,0,0,1-1.45c1.1.08,2.63.13,4.44.1.38,0,1.86-.06,3.14-.2a23.72,23.72,0,0,0,7.27-2,90.59,90.59,0,0,1-11.36,7.49c-.84.39-2.53,1.63-3.3,1.73-5.08.07-10.36-1.88-15.36-2.72l-.66-.13a3.12,3.12,0,0,0-.54-2,3.21,3.21,0,0,0-1.71-1.26A18.32,18.32,0,0,1,81.12,253.76Zm-10.34-.06c.47-.09.93-.15,1.4-.25A4.22,4.22,0,0,1,74.74,255a3.71,3.71,0,0,1,.64,1.42,4,4,0,0,0-.58-.16,2,2,0,0,0-.33-.08c-1.11-.25-3.63-1.12-5.06-1.64A1.75,1.75,0,0,1,70.78,253.7Z"/><path class="cls-1" d="M209.48,220.28a6.67,6.67,0,0,0-7.8,3.87c-1.36,2.63-.37,5.66-1.75,8.26a13.28,13.28,0,0,1-13.72,7.36,13.3,13.3,0,0,0,14.71-6.86c1.61-2.48.66-5.67,2-8.22,2.19-5.47,11-3.23,10.5,2.42a4.85,4.85,0,0,1-1.71,3.24c-1.8,1.51-5.53,1.07-6.38-1.3-.86-2.61,1.82-5.47,4.47-4a1.42,1.42,0,0,1-1,2.62,1.44,1.44,0,0,0,1.81-.85c.79-2.74-3.38-3.38-4.93-1.8-4.4,4.7,2.35,9.7,6.79,6.35C216.75,227.91,214.5,221.46,209.48,220.28Z"/><path class="cls-1" d="M260.9,180.24c-2.78,1-5.62-.49-8.43.45-7.27,1.68-6.34,12.84,1.07,13.35a6.18,6.18,0,0,0,4.37-1.59c2.33-2.19,2.25-6.7-.76-8.25s-6.9,1.47-5.41,4.79c.77,1.56,3.37,1.1,3.08-.74a1.33,1.33,0,0,1-1.15,1.45c-2.43.14-2.07-3.47-.55-4.37,4.39-2.71,7.06,3.23,3.93,6.2s-7.89.26-8.17-3.88a5.29,5.29,0,0,1,3.94-5.68c2.72-.9,5.73.53,8.42-.67a13.31,13.31,0,0,0,9.06-13.47A13.27,13.27,0,0,1,260.9,180.24Z"/><path class="cls-1" d="M230.59,207.18a1.75,1.75,0,0,1,0-.72A1,1,0,0,0,230.59,207.18Z"/><path class="cls-1" d="M236.15,210.11l-2.71-2-1.36-1c-.45-.24-.94-.83-1.48-.66.54-.15,1,.44,1.46.69,1.31,1,2.69,2.11,3.92,3.17,3.6,3.43,9.37,7.11,10.2,12.33.45,2.17.26,2.9-2.29,1.86-5.25-2-7.63-7.59-10.57-12a46.22,46.22,0,0,1-2.41-4.43c-.09-.27-.24-.56-.32-.86a13,13,0,0,0,1,2.41l1.49,3,3,6.06c1.66,3.62,4.69,7.28,8.89,8.15,4.87.76,3.27-5.47,1.66-7.91C244.34,215.27,239.39,212.65,236.15,210.11Z"/><path class="cls-1" d="M176.91,232.83l1.62.69-1.35-.38,5,1.76c4.76,1.91,10.74,1.58,14.21-2.62a9.06,9.06,0,0,0,2.22-5.81c3.15-4.14.83-10.57.9-15.42a6,6,0,0,1,6.86-6.13,4.67,4.67,0,0,1,.76.17,15.34,15.34,0,0,0,.66,9c-2.9.88-6.25-1.48-3.8-5-2.91,3.61.78,6.4,4.05,5.57a11.65,11.65,0,0,0,3.1,4.11c4,3.23,10.29,4.26,14.45.78,4.33-3.51,4.38-10.53-.4-13.64-4.65-3.7-12.22.73-9.93,6.63.94,2.46,4,4.19,6.51,3,3.25-1.59,3.19-7.12-1-6.86a1.89,1.89,0,0,0,.44,3.74,1.74,1.74,0,0,1-.4-3.45c3.67-.1,3.51,4.72.7,5.93-3.35,1.31-6.75-2.81-5.37-6,2.94-6.29,11.51-2.38,11.46,3.64-.73,10.44-14.63,9.31-18.34,1.55a4.74,4.74,0,0,0,1-.73,5.8,5.8,0,0,0-1.62-8.89,15.06,15.06,0,0,1,8.61-10,12.46,12.46,0,0,1,1.18-.52,16,16,0,0,0-1,4c-.12,1.24-.2,2.75.77,3.71,2,2.28,5.65,1.32,5.39-1.93a2.32,2.32,0,0,0-2.6-2.12,2.21,2.21,0,0,1,2.38,2.13c.07,2.93-3,3.64-4.76,1.55-.78-.83-.62-2.09-.47-3.26a14,14,0,0,1,1.42-4.48c3.86-1.18,9.5-1.49,8.44,3.45a2.64,2.64,0,0,1-4.37.37,2.7,2.7,0,0,1-.3-1.75,2.32,2.32,0,0,0,1.69,2.9c3.18.74,4.68-2.68,2.74-5-.8-1.11-2.3-1.26-3.55-1.34a16.25,16.25,0,0,0-4.11.4c.22-.37.43-.73.67-1.09A15.07,15.07,0,0,1,232,184.5a5.59,5.59,0,0,0,9.38,2.12c7.11,4.85,6.08,18.79-4.35,17.89-5.95-.88-8.5-9.95-1.83-11.88,3.36-.88,6.89,3.12,5.08,6.22-1.66,2.59-6.39,2-5.74-1.6a1.74,1.74,0,0,1,3.34.93,1.89,1.89,0,0,0-3.63-1c-.94,4.12,4.58,5.06,6.62,2.09,1.52-2.34.28-5.6-2-6.9a5.68,5.68,0,0,0-7.26,1.29c-3.95,4.26-.11,11.38,5.21,12.17,9.3,1.17,13.22-9.52,8.83-16.57a11.52,11.52,0,0,0-3.58-3.7,4.83,4.83,0,0,0,.14-3.52,2.82,2.82,0,0,0-2.17-2,4.58,4.58,0,0,0-2.84.61c1.67-.86,4.16-.62,4.64,1.46a4.32,4.32,0,0,1-.25,3.07,15.39,15.39,0,0,0-8.73-2,6,6,0,0,1,2.21-5.46c3.26-2.4,7.13-.49,10.66.26,2.94.83,6.72,1.6,9.56.1,4.19.75,8.79-2.33,10.25-6.21a16.05,16.05,0,0,0-.43-11.52c2.5,6.87-.16,16.69-8.43,16.69a5.53,5.53,0,0,0,.64-.64c1.31-1.89,1.23-5.21-1.35-6a3.79,3.79,0,0,0-3.06,6.78l.28.14c-4.86,1.24-11-3.07-16-1.92-3.73.55-5.89,4.44-5.47,7.85a15.71,15.71,0,0,0-6.54,2.3,18.33,18.33,0,0,0-6.27,7.28,18.24,18.24,0,0,0-8.15,5.06,15.57,15.57,0,0,0-3.27,6.09,6.21,6.21,0,0,0-.86-.16c-4.33-1-8.43,2.88-8.35,7.22-.19,4.07,1.59,9.38,0,13.21a3.92,3.92,0,0,0-3.2-2.39,3.73,3.73,0,0,0-4,4.56c.83,2.48,4,2.76,5.95,1.61.17-.13.31-.27.47-.4a9.53,9.53,0,0,1-6.26,7.21,10.26,10.26,0,0,1-2,.52,15.56,15.56,0,0,1-2.4,0c-.54,0-1-.09-1.5-.16s-.67-.15-1-.25c-1.13-.31-1.61-.55-2.54-.84h0l-.58-.17-.44-.11-1.11-.31h0Zm75.6-58.67a2.46,2.46,0,0,1,3.05-2.48c1.4.31,1.48,2.69.58,3.9a6.38,6.38,0,0,1-1.56,1.16A3,3,0,0,1,252.51,174.16Zm-13.24,11.37a8.83,8.83,0,0,1,1.52.72,4.87,4.87,0,0,1-5.9.55,4.26,4.26,0,0,1-1.81-2.38A14.68,14.68,0,0,1,239.27,185.53Zm-29.56,27.36a4.5,4.5,0,0,1-.72.6,8.77,8.77,0,0,1-.48-1.63,14.51,14.51,0,0,1-.14-6.32A4.93,4.93,0,0,1,209.71,212.89Zm-13.41,14c-1.23.83-3.62.52-3.94-.78a2.48,2.48,0,0,1,4.54-1.79,5.09,5.09,0,0,1,.51,1.41A6.71,6.71,0,0,1,196.3,226.85ZM179,233.58l1.06.37-1.31-.37Zm.53,0-.3,0h.17Z"/><path class="cls-2" d="M131.16,162.17a68.89,68.89,0,0,0,11.15-10.61q5.73-6.63,5.73-9c0-.79-.45-1.18-1.35-1.18q-3.21,0-9.29,6.37a54,54,0,0,0-5.35,6.5q-2.34,3.35-7.49,12a55.77,55.77,0,0,1-10.4,7.32,18.87,18.87,0,0,1-8.49,2.1,11.32,11.32,0,0,1-7.8-2.53,8.84,8.84,0,0,1-2.84-7q0-9.42,8-18.13t16.66-8.7a8.31,8.31,0,0,1,5.93,2.18,7.32,7.32,0,0,1,2.32,5.57q0,6.27-6.13,13.35t-11.54,7.08a5.65,5.65,0,0,1-3.89-1.38,4.68,4.68,0,0,1-1.19-1.58,4.42,4.42,0,0,1-.37-1.87,3.8,3.8,0,0,1,1-2.65,3.21,3.21,0,0,1,2.36-1,1.8,1.8,0,0,1,1.07.37,1.83,1.83,0,0,1,.61,1.23,1.91,1.91,0,0,0-.23-1.68,2.2,2.2,0,0,0-1.75-.63,3,3,0,0,0-1,.15,3.46,3.46,0,0,0-1.64,1.15,4.57,4.57,0,0,0-1.1,3.07,5.05,5.05,0,0,0,1.72,3.88,6,6,0,0,0,4.22,1.57q5.88,0,12.19-7.19t6.3-13.92a7.6,7.6,0,0,0-2.58-6,10.18,10.18,0,0,0-6.91-2.23q-9.39,0-17.82,8T92.8,163.65q0,5.82,3.43,9.23a12.48,12.48,0,0,0,9.21,3.42q8.5,0,18.3-8.54a61,61,0,0,1-7.09,9.21,18.88,18.88,0,0,1-6.42,4.19Q98.11,178,92,178c-5.26,0-7.88,1-7.88,3s3.43,3.15,10.31,3.15A58.26,58.26,0,0,0,105.73,183q8.53,2.73,12.71,3.58a43.07,43.07,0,0,0,8.67.85c4.09,0,7.21-.73,9.35-2.21,1.16-.81,1.74-1.39,1.74-1.75a.29.29,0,0,0-.19-.16,1.35,1.35,0,0,0-.36.16,9,9,0,0,1-6.18,2.48,22.93,22.93,0,0,1-4.94-.57q-2.58-.57-15.64-4.06a26.25,26.25,0,0,0,11.79-6Q127.06,171.17,131.16,162.17ZM140,146.83q4.23-5,6.66-5c.53,0,.79.24.79.72q0,2-5.12,8a84.66,84.66,0,0,1-10.74,10.56Q136.26,151.28,140,146.83ZM94.77,183.52q-10.08,0-10.08-2.56,0-1.91,4.3-1.91,4.13,0,15.66,3.65A54.28,54.28,0,0,1,94.77,183.52Z"/><path class="cls-2" d="M122.83,95a9.26,9.26,0,0,0-6.78-2.52,21.05,21.05,0,0,0-11.15,3.59q-6.39-4.12-15.55-4.13A36.86,36.86,0,0,0,67.1,99.29Q57,106.66,57,115.56a9.05,9.05,0,0,0,9.64,9.66q6.7,0,13.6-6.23t6.89-12.34q0-5-5.41-5-5.67,0-11.05,4.64t-5.39,9.52a5.39,5.39,0,0,0,1,3.35,3.11,3.11,0,0,0,2.55,1.37c.4,0,.6-.1.6-.29S69.33,120,69,120a2.32,2.32,0,0,1-1.76-.82,2.77,2.77,0,0,1-.75-2q0-4.59,5.36-9.8t10.06-5.2q4.7,0,4.69,4.56,0,5.73-6.75,11.81t-13.08,6.08a8.76,8.76,0,0,1-6.14-2.08A7.24,7.24,0,0,1,58.33,117q0-6.94,8.06-14.83a32,32,0,0,1,23.11-9.6q9.45,0,14.42,4.19a46.07,46.07,0,0,0-7.33,6.89,83.73,83.73,0,0,0-7.5,9.54Q82.67,123,80.88,125.4A33.43,33.43,0,0,1,76.66,130a18.15,18.15,0,0,1-12.5,5.1,11.34,11.34,0,0,1-6.47-1.73,5.6,5.6,0,0,1-2.32-2.79,5.76,5.76,0,0,1-.25-1.56,7.41,7.41,0,0,1,.2-1.89c0-.14.13-.51.26-.93,0-.15.08-.26.1-.34a3.34,3.34,0,0,0-.32.33,4.22,4.22,0,0,0-1,2.77,5.71,5.71,0,0,0,2.8,4.83,12.08,12.08,0,0,0,7,1.94q5.16,0,11.74-3.21a28.57,28.57,0,0,0,8.6-6.14q3.12-3.49,6.86-11.27,6.08-12.66,13-18a8.1,8.1,0,0,1,2.42,5.7,9.4,9.4,0,0,1-1.9,5.79,10,10,0,0,1-5.18,3.53,16.73,16.73,0,0,0-3.75-.57q-2,0-2,.57c0,.52.79.79,2.39.79a12.76,12.76,0,0,0,1.51-.1l1.83-.22q5,2.46,5,7.68a15.43,15.43,0,0,1-4,10.28c-2.68,3.12-5.61,4.68-8.82,4.68a4.81,4.81,0,0,1-3.52-1.39A4.65,4.65,0,0,1,87,130.45q0-3.9,3.39-7.65t6.94-3.75a4.28,4.28,0,0,1,3.05,1.1,3.83,3.83,0,0,1,1.16,2.9,7.8,7.8,0,0,1-1.64,4.31,1,1,0,0,0-.12.38c0,.17.11.25.35.25s.72-.6,1.22-1.82a8.27,8.27,0,0,0,.76-3.06,4.51,4.51,0,0,0-1.32-3.35,4.66,4.66,0,0,0-3.4-1.31q-3.75,0-7.45,4t-3.7,8A5.21,5.21,0,0,0,88,134.53a6.92,6.92,0,0,0,4.7,1.52A15.81,15.81,0,0,0,103.5,132a12.28,12.28,0,0,0,4.61-9.47q0-7.3-7.84-10,9.54-1.32,9.54-8.34,0-4.38-4.41-7.65A20.29,20.29,0,0,1,116.12,93a8.39,8.39,0,0,1,6.24,2.41,8.74,8.74,0,0,1,2.36,6.38,13,13,0,0,1-.85,4.75,1.06,1.06,0,0,0-.06.29.27.27,0,0,0,.31.31q.41,0,.84-2a16.63,16.63,0,0,0,.44-3.59A8.89,8.89,0,0,0,122.83,95Z"/><path class="cls-2" d="M128.72,124.55a3.9,3.9,0,0,1-.57.81l-1.35,1.7q-6.52,8.06-11.19,8.05a4.86,4.86,0,0,1-3.7-1.59,5.58,5.58,0,0,1-1.5-4q0-5.67,7.9-10c2.77-1.52,5-2.27,6.77-2.27A2.87,2.87,0,0,1,127,118a2.09,2.09,0,0,1,.8,1.65q0,2.26-3,3.86t-9.89,3c-1.42,2.16-2.14,4-2.14,5.42,0,1.8,1,2.7,2.93,2.7q5,0,12.2-9.71c.25-.33.46-.5.63-.5S128.72,124.44,128.72,124.55Zm-2.66-5.84c0-.68-.37-1-1.1-1-1.12,0-2.58.77-4.4,2.31a32.7,32.7,0,0,0-5.33,6,24.59,24.59,0,0,0,7.68-3.29Q126.06,120.59,126.06,118.71Z"/><path class="cls-2" d="M150.85,124.52q0,.66-4.6,6.11-3.72,4.49-5.86,4.48A2.94,2.94,0,0,1,138,134a4.06,4.06,0,0,1-.91-2.72,8.09,8.09,0,0,1,1-3.68,43.3,43.3,0,0,1-4.82,5.95,4.86,4.86,0,0,1-3.24,1.54,3.47,3.47,0,0,1-2.81-1.43,5.68,5.68,0,0,1-1.13-3.61q0-6,8.53-10.7a13.5,13.5,0,0,1,6-2.08,1.7,1.7,0,0,1,2,1.89,5.24,5.24,0,0,1-.25,1.41l1.6-3a7.31,7.31,0,0,0,1.67.22,14,14,0,0,0,2.21-.22l-5.58,9.23q-2.9,4.85-2.89,6.39c0,1,.41,1.48,1.23,1.48s2.18-1,4-2.89a54.31,54.31,0,0,0,5.65-7.11c.12-.21.24-.31.34-.31A.17.17,0,0,1,150.85,124.52Zm-8.67-5.22c0-1-.47-1.54-1.42-1.54q-2.89,0-7.6,5.67t-4.71,9.16c0,1.37.61,2,1.83,2q2.17,0,7.52-7.21Q142.18,121.51,142.18,119.3Z"/><path class="cls-2" d="M171.1,124.52c0,.48-1.53,2.52-4.57,6.11q-3.78,4.49-6,4.48a3,3,0,0,1-2.35-1.12,4,4,0,0,1-1-2.69,7.85,7.85,0,0,1,1.23-3.43l-.63.85a49.13,49.13,0,0,1-4.25,5,4.21,4.21,0,0,1-2.81,1.42,3,3,0,0,1-2.33-1.09,3.9,3.9,0,0,1-.94-2.66,8.34,8.34,0,0,1,1.42-4.18l5.73-9.64a8.58,8.58,0,0,0,1.66.22,17.41,17.41,0,0,0,2.15-.22L151,129.88a6.78,6.78,0,0,0-1.13,3.34c0,.95.4,1.42,1.2,1.42q3.18,0,10.2-11.87l3.08-5.23a7.5,7.5,0,0,0,1.64.22,15.68,15.68,0,0,0,2.24-.22l-5,8.22c-2.4,3.9-3.59,6.41-3.59,7.52,0,.91.43,1.36,1.29,1.36q2.52,0,8.2-7.95l1-1.36.56-.69c.11-.21.21-.31.32-.31A.17.17,0,0,1,171.1,124.52Z"/><path class="cls-2" d="M182.7,117.29l-.25.47h-4.13l-7,12a7.47,7.47,0,0,0-1.29,3.46c0,.95.5,1.42,1.48,1.42q2.88,0,9.68-10c.15-.21.28-.31.38-.31a.17.17,0,0,1,.19.19,3.47,3.47,0,0,1-.32.5l-1.35,1.86q-5.92,8.24-8.92,8.23a3.27,3.27,0,0,1-2.48-1.07,3.79,3.79,0,0,1-1-2.68,10,10,0,0,1,1.67-4.72l5.29-8.88h-3.21l.31-.47h3.15l3.69-6.11a6.77,6.77,0,0,0,1.79.25,7,7,0,0,0,1.83-.25l-3.62,6.11Z"/><path class="cls-2" d="M201.54,124.55c0,.31-1.15,1.75-3.46,4.3a38.57,38.57,0,0,1-10,7.61l-1.54,2.77Q182,147.42,177,151.42t-8.91,4.12a3,3,0,0,1-2.16-.81,2.7,2.7,0,0,1-.86-2q0-6.33,14.57-13.1c.8-.4,2-1,3.59-1.67l.48-.28,5.54-9.85a49.57,49.57,0,0,1-4.76,5.9,4.38,4.38,0,0,1-3,1.4,2.92,2.92,0,0,1-2.25-1.1,3.82,3.82,0,0,1-1-2.58q0-1.8,2.24-5.61l4.84-8.18a10.38,10.38,0,0,0,1.67.12,15.64,15.64,0,0,0,2.27-.22l-6.2,10.08q-2.66,4.27-2.65,5.6c0,.95.43,1.42,1.29,1.42q3.41,0,10.46-12.06l2.89-4.94a11.09,11.09,0,0,0,1.77.12,12.37,12.37,0,0,0,2.11-.22q-3.91,6.21-10.58,18.2a32.32,32.32,0,0,0,6.49-4.29,47.36,47.36,0,0,0,5.93-6.53c.29-.37.48-.56.57-.56S201.54,124.42,201.54,124.55Zm-18.18,13.64c-.33.19-1.52.79-3.56,1.8q-14.33,7.11-14.32,12.78c0,1.58.88,2.36,2.64,2.36,2.23,0,4.44-1.2,6.65-3.62s4.93-6.64,8.18-12.69Z"/><path class="cls-2" d="M154.87,173.27c0,.48-1.53,2.52-4.57,6.12-2.52,3-4.52,4.48-6,4.48a3,3,0,0,1-2.35-1.12,4,4,0,0,1-1-2.69,7.88,7.88,0,0,1,1.23-3.44l-.63.85a48.43,48.43,0,0,1-4.25,5,4.25,4.25,0,0,1-2.81,1.42,3,3,0,0,1-2.33-1.09,3.9,3.9,0,0,1-.94-2.66,8.37,8.37,0,0,1,1.42-4.19l5.73-9.63a9.44,9.44,0,0,0,1.67.22,19.84,19.84,0,0,0,2.14-.22l-7.5,12.34A6.75,6.75,0,0,0,133.6,182q0,1.41,1.2,1.41,3.18,0,10.2-11.87l3.08-5.22a8.17,8.17,0,0,0,1.64.22,17.31,17.31,0,0,0,2.24-.22l-5,8.21q-3.58,5.87-3.59,7.53,0,1.35,1.29,1.35,2.52,0,8.2-7.94l1-1.36.56-.69c.11-.21.21-.32.32-.32A.17.17,0,0,1,154.87,173.27Z"/><path class="cls-2" d="M180.09,173.27c0,.44-1.53,2.48-4.57,6.12-2.5,3-4.47,4.48-5.9,4.48a3,3,0,0,1-2.38-1.11,4,4,0,0,1-1-2.7,6.1,6.1,0,0,1,.58-2.63,49.56,49.56,0,0,1,3-4.8q2.55-3.78,2.55-4.82,0-1.29-1.35-1.29-4.6,0-14.17,17.06-1.55-.12-1.86-.12a17.25,17.25,0,0,0-2.08.12l4.92-7.77q4.18-6.67,4.18-8.35c0-.63-.26-.94-.78-.94q-1.62,0-6.35,6.78c-.19.28-.33.42-.44.44s-.17-.06-.19-.19a.5.5,0,0,1,.13-.25l.6-.79q4.81-6.47,6.49-6.47a2.25,2.25,0,0,1,1.83,1,3.66,3.66,0,0,1,.76,2.33q0,2-2.36,5.61a55.31,55.31,0,0,1,5.71-7,5.7,5.7,0,0,1,3.7-1.89,2.91,2.91,0,0,1,2.33,1.14,4.22,4.22,0,0,1,.95,2.8q0,2.11-2.9,6.46t-3,5.66a1.14,1.14,0,0,0,1.29,1.29q2.81,0,9.68-10c.11-.21.21-.32.32-.32A.17.17,0,0,1,180.09,173.27Z"/><path class="cls-2" d="M195.7,173.27q0,.4-4.44,5.3c-3.23,3.53-6,5.3-8.25,5.3a5,5,0,0,1-3.79-1.69,5.66,5.66,0,0,1-1.57-4,9.14,9.14,0,0,1,2.14-5.48,18.47,18.47,0,0,1,5.76-4.88,10.72,10.72,0,0,1,5-1.77c1.55,0,2.33.93,2.33,2.78a7.72,7.72,0,0,1-1.47,4.34c-1,1.45-1.95,2.17-2.91,2.17a1.25,1.25,0,0,1-1.42-1.41c0-1.12,1-2.15,2.9-3.09,1.49-.73,2.23-1.7,2.23-2.9,0-.94-.51-1.41-1.54-1.41q-2.61,0-6.42,5.19t-3.81,8.72c0,2,.92,3,2.77,3q4.35,0,11.79-9.8.41-.51.6-.51A.17.17,0,0,1,195.7,173.27Z"/><path class="cls-2" d="M215.82,173.21a.86.86,0,0,1-.31.57l-1.36,1.86q-5.93,8.22-8.82,8.23a3.18,3.18,0,0,1-2.48-1.09,4,4,0,0,1-1-2.72q0-2.2,2.39-5.77,3.75-5.5,3.75-6.54,0-1.23-1.29-1.23-1.89,0-5.16,3.71t-8.66,13.48a8.15,8.15,0,0,0-1.61-.19,11.63,11.63,0,0,0-1.85.19l4.62-8.38c.63-1.19,1.6-3,2.9-5.29q1-1.69,6.39-10.83l4.79-8.12a8.88,8.88,0,0,0,1.6.19,9,9,0,0,0,2.4-.32q-3.28,5.26-9.76,15.75-.19.31-4.88,8.12,5.91-8.79,9.35-8.79a2.9,2.9,0,0,1,2.31,1.17,4.31,4.31,0,0,1,1,2.83q0,2.18-2.77,6.27-3.09,4.56-3.09,5.73a1.2,1.2,0,0,0,1.36,1.35q2.46,0,8.14-7.94l1-1.36.57-.69c.11-.21.23-.32.38-.32S215.82,173.12,215.82,173.21Z"/></g></g></svg>